<mxfile host="app.diagrams.net" agent="Mozilla/5.0 (Windows NT 10.0; Win64; x64) AppleWebKit/537.36 (KHTML, like Gecko) Chrome/131.0.0.0 Safari/537.36" version="26.0.4">
  <diagram name="Страница-1" id="vO82L34VgPR4Cy_R8VoT">
    <mxGraphModel grid="1" page="1" gridSize="10" guides="1" tooltips="1" connect="1" arrows="1" fold="1" pageScale="1" pageWidth="827" pageHeight="1169" math="0" shadow="0">
      <root>
        <mxCell id="0" />
        <mxCell id="1" parent="0" />
        <mxCell id="yvnb1PuiH-JpDgE4e_Om-24" style="edgeStyle=orthogonalEdgeStyle;rounded=0;orthogonalLoop=1;jettySize=auto;html=1;exitX=0.5;exitY=1;exitDx=0;exitDy=0;" edge="1" parent="1" source="yvnb1PuiH-JpDgE4e_Om-2" target="yvnb1PuiH-JpDgE4e_Om-16">
          <mxGeometry relative="1" as="geometry">
            <Array as="points">
              <mxPoint x="244" y="900" />
            </Array>
          </mxGeometry>
        </mxCell>
        <mxCell id="3BAhueXLDxl5mmKf5yLW-1" style="edgeStyle=orthogonalEdgeStyle;rounded=0;orthogonalLoop=1;jettySize=auto;html=1;entryX=0.5;entryY=0;entryDx=0;entryDy=0;" edge="1" parent="1" source="yvnb1PuiH-JpDgE4e_Om-1" target="yvnb1PuiH-JpDgE4e_Om-2">
          <mxGeometry relative="1" as="geometry" />
        </mxCell>
        <mxCell id="3BAhueXLDxl5mmKf5yLW-3" value="" style="edgeStyle=orthogonalEdgeStyle;rounded=0;orthogonalLoop=1;jettySize=auto;html=1;" edge="1" parent="1" source="yvnb1PuiH-JpDgE4e_Om-1" target="3BAhueXLDxl5mmKf5yLW-2">
          <mxGeometry relative="1" as="geometry" />
        </mxCell>
        <mxCell id="3BAhueXLDxl5mmKf5yLW-13" style="edgeStyle=orthogonalEdgeStyle;rounded=0;orthogonalLoop=1;jettySize=auto;html=1;entryX=0;entryY=0.5;entryDx=0;entryDy=0;" edge="1" parent="1" source="yvnb1PuiH-JpDgE4e_Om-1" target="3BAhueXLDxl5mmKf5yLW-9">
          <mxGeometry relative="1" as="geometry">
            <Array as="points">
              <mxPoint x="844" y="130" />
              <mxPoint x="844" y="391" />
            </Array>
          </mxGeometry>
        </mxCell>
        <mxCell id="yvnb1PuiH-JpDgE4e_Om-1" value="&lt;font style=&quot;font-size: 18px;&quot;&gt;catalog&lt;/font&gt;&lt;div&gt;&lt;font style=&quot;font-size: 14px;&quot;&gt;root&lt;/font&gt;&lt;/div&gt;" style="ellipse;whiteSpace=wrap;html=1;" vertex="1" parent="1">
          <mxGeometry x="184" y="90" width="120" height="80" as="geometry" />
        </mxCell>
        <mxCell id="yvnb1PuiH-JpDgE4e_Om-14" style="edgeStyle=orthogonalEdgeStyle;rounded=0;orthogonalLoop=1;jettySize=auto;html=1;exitX=0.5;exitY=1;exitDx=0;exitDy=0;entryX=0;entryY=0.5;entryDx=0;entryDy=0;" edge="1" parent="1" source="yvnb1PuiH-JpDgE4e_Om-2" target="yvnb1PuiH-JpDgE4e_Om-4">
          <mxGeometry relative="1" as="geometry">
            <Array as="points">
              <mxPoint x="244" y="650" />
            </Array>
          </mxGeometry>
        </mxCell>
        <mxCell id="yvnb1PuiH-JpDgE4e_Om-15" style="edgeStyle=orthogonalEdgeStyle;rounded=0;orthogonalLoop=1;jettySize=auto;html=1;exitX=0.5;exitY=1;exitDx=0;exitDy=0;entryX=0;entryY=0.5;entryDx=0;entryDy=0;" edge="1" parent="1" source="yvnb1PuiH-JpDgE4e_Om-2" target="yvnb1PuiH-JpDgE4e_Om-7">
          <mxGeometry relative="1" as="geometry" />
        </mxCell>
        <mxCell id="it57xMDeB9nZyHFq1VzK-3" style="edgeStyle=orthogonalEdgeStyle;rounded=0;orthogonalLoop=1;jettySize=auto;html=1;entryX=0;entryY=0.5;entryDx=0;entryDy=0;exitX=0.5;exitY=1;exitDx=0;exitDy=0;" edge="1" parent="1" source="yvnb1PuiH-JpDgE4e_Om-2" target="it57xMDeB9nZyHFq1VzK-2">
          <mxGeometry relative="1" as="geometry" />
        </mxCell>
        <mxCell id="it57xMDeB9nZyHFq1VzK-19" style="edgeStyle=orthogonalEdgeStyle;rounded=0;orthogonalLoop=1;jettySize=auto;html=1;entryX=0;entryY=0.5;entryDx=0;entryDy=0;" edge="1" parent="1" source="yvnb1PuiH-JpDgE4e_Om-2" target="it57xMDeB9nZyHFq1VzK-18">
          <mxGeometry relative="1" as="geometry">
            <Array as="points">
              <mxPoint x="244" y="1050" />
            </Array>
          </mxGeometry>
        </mxCell>
        <mxCell id="it57xMDeB9nZyHFq1VzK-21" value="" style="edgeStyle=orthogonalEdgeStyle;rounded=0;orthogonalLoop=1;jettySize=auto;html=1;" edge="1" parent="1" source="yvnb1PuiH-JpDgE4e_Om-2" target="it57xMDeB9nZyHFq1VzK-20">
          <mxGeometry relative="1" as="geometry" />
        </mxCell>
        <mxCell id="it57xMDeB9nZyHFq1VzK-24" style="edgeStyle=orthogonalEdgeStyle;rounded=0;orthogonalLoop=1;jettySize=auto;html=1;entryX=0.5;entryY=1;entryDx=0;entryDy=0;" edge="1" parent="1" source="yvnb1PuiH-JpDgE4e_Om-2" target="it57xMDeB9nZyHFq1VzK-22">
          <mxGeometry relative="1" as="geometry" />
        </mxCell>
        <mxCell id="it57xMDeB9nZyHFq1VzK-25" style="edgeStyle=orthogonalEdgeStyle;rounded=0;orthogonalLoop=1;jettySize=auto;html=1;entryX=0.5;entryY=1;entryDx=0;entryDy=0;" edge="1" parent="1" source="yvnb1PuiH-JpDgE4e_Om-2" target="it57xMDeB9nZyHFq1VzK-23">
          <mxGeometry relative="1" as="geometry" />
        </mxCell>
        <mxCell id="it57xMDeB9nZyHFq1VzK-28" style="edgeStyle=orthogonalEdgeStyle;rounded=0;orthogonalLoop=1;jettySize=auto;html=1;entryX=0;entryY=0.5;entryDx=0;entryDy=0;" edge="1" parent="1" source="yvnb1PuiH-JpDgE4e_Om-2" target="it57xMDeB9nZyHFq1VzK-27">
          <mxGeometry relative="1" as="geometry">
            <Array as="points">
              <mxPoint x="244" y="1170" />
            </Array>
          </mxGeometry>
        </mxCell>
        <mxCell id="it57xMDeB9nZyHFq1VzK-40" style="edgeStyle=orthogonalEdgeStyle;rounded=0;orthogonalLoop=1;jettySize=auto;html=1;entryX=0;entryY=0.5;entryDx=0;entryDy=0;" edge="1" parent="1" source="yvnb1PuiH-JpDgE4e_Om-2" target="it57xMDeB9nZyHFq1VzK-39">
          <mxGeometry relative="1" as="geometry">
            <Array as="points">
              <mxPoint x="244" y="1330" />
            </Array>
          </mxGeometry>
        </mxCell>
        <mxCell id="it57xMDeB9nZyHFq1VzK-60" style="edgeStyle=orthogonalEdgeStyle;rounded=0;orthogonalLoop=1;jettySize=auto;html=1;entryX=0;entryY=0.5;entryDx=0;entryDy=0;" edge="1" parent="1" source="yvnb1PuiH-JpDgE4e_Om-2" target="it57xMDeB9nZyHFq1VzK-59">
          <mxGeometry relative="1" as="geometry">
            <Array as="points">
              <mxPoint x="244" y="1460" />
            </Array>
          </mxGeometry>
        </mxCell>
        <mxCell id="it57xMDeB9nZyHFq1VzK-74" style="edgeStyle=orthogonalEdgeStyle;rounded=0;orthogonalLoop=1;jettySize=auto;html=1;entryX=0;entryY=0.5;entryDx=0;entryDy=0;" edge="1" parent="1" source="yvnb1PuiH-JpDgE4e_Om-2" target="it57xMDeB9nZyHFq1VzK-69">
          <mxGeometry relative="1" as="geometry">
            <Array as="points">
              <mxPoint x="244" y="1610" />
            </Array>
          </mxGeometry>
        </mxCell>
        <mxCell id="yvnb1PuiH-JpDgE4e_Om-2" value="&lt;font style=&quot;font-size: 18px;&quot;&gt;hut&lt;/font&gt;&lt;div&gt;&lt;font style=&quot;font-size: 14px;&quot;&gt;main element&lt;/font&gt;&lt;/div&gt;" style="ellipse;whiteSpace=wrap;html=1;" vertex="1" parent="1">
          <mxGeometry x="184" y="280" width="120" height="80" as="geometry" />
        </mxCell>
        <mxCell id="it57xMDeB9nZyHFq1VzK-8" style="edgeStyle=orthogonalEdgeStyle;rounded=0;orthogonalLoop=1;jettySize=auto;html=1;entryX=0.5;entryY=0;entryDx=0;entryDy=0;" edge="1" parent="1" source="yvnb1PuiH-JpDgE4e_Om-4" target="it57xMDeB9nZyHFq1VzK-4">
          <mxGeometry relative="1" as="geometry" />
        </mxCell>
        <mxCell id="it57xMDeB9nZyHFq1VzK-9" style="edgeStyle=orthogonalEdgeStyle;rounded=0;orthogonalLoop=1;jettySize=auto;html=1;entryX=0.5;entryY=0;entryDx=0;entryDy=0;" edge="1" parent="1" source="yvnb1PuiH-JpDgE4e_Om-4" target="it57xMDeB9nZyHFq1VzK-5">
          <mxGeometry relative="1" as="geometry" />
        </mxCell>
        <mxCell id="it57xMDeB9nZyHFq1VzK-10" style="edgeStyle=orthogonalEdgeStyle;rounded=0;orthogonalLoop=1;jettySize=auto;html=1;entryX=0.5;entryY=0;entryDx=0;entryDy=0;" edge="1" parent="1" source="yvnb1PuiH-JpDgE4e_Om-4" target="it57xMDeB9nZyHFq1VzK-6">
          <mxGeometry relative="1" as="geometry" />
        </mxCell>
        <mxCell id="it57xMDeB9nZyHFq1VzK-11" style="edgeStyle=orthogonalEdgeStyle;rounded=0;orthogonalLoop=1;jettySize=auto;html=1;entryX=0.5;entryY=0;entryDx=0;entryDy=0;" edge="1" parent="1" source="yvnb1PuiH-JpDgE4e_Om-4" target="it57xMDeB9nZyHFq1VzK-7">
          <mxGeometry relative="1" as="geometry" />
        </mxCell>
        <mxCell id="yvnb1PuiH-JpDgE4e_Om-4" value="&lt;font style=&quot;font-size: 18px;&quot;&gt;location&lt;/font&gt;" style="ellipse;whiteSpace=wrap;html=1;" vertex="1" parent="1">
          <mxGeometry x="334" y="610" width="120" height="80" as="geometry" />
        </mxCell>
        <mxCell id="yvnb1PuiH-JpDgE4e_Om-7" value="&lt;font style=&quot;font-size: 18px;&quot;&gt;description&lt;/font&gt;&lt;div&gt;&lt;span style=&quot;font-size: 18px;&quot;&gt;PCDATA&lt;/span&gt;&lt;/div&gt;" style="ellipse;whiteSpace=wrap;html=1;" vertex="1" parent="1">
          <mxGeometry x="334" y="400" width="120" height="80" as="geometry" />
        </mxCell>
        <mxCell id="yvnb1PuiH-JpDgE4e_Om-21" style="edgeStyle=orthogonalEdgeStyle;rounded=0;orthogonalLoop=1;jettySize=auto;html=1;exitX=1;exitY=0.5;exitDx=0;exitDy=0;entryX=0.5;entryY=0;entryDx=0;entryDy=0;" edge="1" parent="1" source="yvnb1PuiH-JpDgE4e_Om-16" target="yvnb1PuiH-JpDgE4e_Om-17">
          <mxGeometry relative="1" as="geometry" />
        </mxCell>
        <mxCell id="yvnb1PuiH-JpDgE4e_Om-22" style="edgeStyle=orthogonalEdgeStyle;rounded=0;orthogonalLoop=1;jettySize=auto;html=1;exitX=1;exitY=0.5;exitDx=0;exitDy=0;entryX=0.5;entryY=0;entryDx=0;entryDy=0;" edge="1" parent="1" source="yvnb1PuiH-JpDgE4e_Om-16" target="yvnb1PuiH-JpDgE4e_Om-19">
          <mxGeometry relative="1" as="geometry" />
        </mxCell>
        <mxCell id="it57xMDeB9nZyHFq1VzK-17" style="edgeStyle=orthogonalEdgeStyle;rounded=0;orthogonalLoop=1;jettySize=auto;html=1;entryX=0.5;entryY=0;entryDx=0;entryDy=0;" edge="1" parent="1" source="yvnb1PuiH-JpDgE4e_Om-16" target="it57xMDeB9nZyHFq1VzK-16">
          <mxGeometry relative="1" as="geometry" />
        </mxCell>
        <mxCell id="yvnb1PuiH-JpDgE4e_Om-16" value="&lt;span style=&quot;font-size: 18px;&quot;&gt;contacts&lt;/span&gt;" style="ellipse;whiteSpace=wrap;html=1;" vertex="1" parent="1">
          <mxGeometry x="344" y="860" width="120" height="80" as="geometry" />
        </mxCell>
        <mxCell id="yvnb1PuiH-JpDgE4e_Om-17" value="&lt;span style=&quot;font-size: 18px;&quot;&gt;phone&lt;/span&gt;&lt;div&gt;&lt;span style=&quot;font-size: 18px;&quot;&gt;+(at least 1)&lt;/span&gt;&lt;/div&gt;" style="ellipse;whiteSpace=wrap;html=1;" vertex="1" parent="1">
          <mxGeometry x="494" y="920" width="120" height="80" as="geometry" />
        </mxCell>
        <mxCell id="yvnb1PuiH-JpDgE4e_Om-19" value="&lt;span style=&quot;font-size: 18px;&quot;&gt;email&lt;/span&gt;&lt;div&gt;&lt;span style=&quot;font-size: 18px;&quot;&gt;*&lt;/span&gt;&lt;/div&gt;" style="ellipse;whiteSpace=wrap;html=1;" vertex="1" parent="1">
          <mxGeometry x="624" y="920" width="120" height="80" as="geometry" />
        </mxCell>
        <mxCell id="it57xMDeB9nZyHFq1VzK-38" value="" style="edgeStyle=orthogonalEdgeStyle;rounded=0;orthogonalLoop=1;jettySize=auto;html=1;" edge="1" parent="1" source="it57xMDeB9nZyHFq1VzK-2" target="it57xMDeB9nZyHFq1VzK-37">
          <mxGeometry relative="1" as="geometry" />
        </mxCell>
        <mxCell id="it57xMDeB9nZyHFq1VzK-2" value="&lt;font style=&quot;font-size: 18px;&quot;&gt;thumbnail&lt;/font&gt;&lt;div&gt;&lt;br&gt;&lt;/div&gt;" style="ellipse;whiteSpace=wrap;html=1;" vertex="1" parent="1">
          <mxGeometry x="334" y="500" width="120" height="80" as="geometry" />
        </mxCell>
        <mxCell id="it57xMDeB9nZyHFq1VzK-4" value="&lt;span style=&quot;font-size: 18px;&quot;&gt;mountain&lt;/span&gt;" style="ellipse;whiteSpace=wrap;html=1;" vertex="1" parent="1">
          <mxGeometry x="484" y="670" width="120" height="80" as="geometry" />
        </mxCell>
        <mxCell id="it57xMDeB9nZyHFq1VzK-5" value="&lt;span style=&quot;font-size: 18px;&quot;&gt;address&lt;/span&gt;" style="ellipse;whiteSpace=wrap;html=1;" vertex="1" parent="1">
          <mxGeometry x="624" y="670" width="120" height="80" as="geometry" />
        </mxCell>
        <mxCell id="it57xMDeB9nZyHFq1VzK-14" style="edgeStyle=orthogonalEdgeStyle;rounded=0;orthogonalLoop=1;jettySize=auto;html=1;entryX=1;entryY=0;entryDx=0;entryDy=0;" edge="1" parent="1" source="it57xMDeB9nZyHFq1VzK-6" target="it57xMDeB9nZyHFq1VzK-13">
          <mxGeometry relative="1" as="geometry" />
        </mxCell>
        <mxCell id="it57xMDeB9nZyHFq1VzK-6" value="&lt;span style=&quot;font-size: 18px;&quot;&gt;coordinates&lt;/span&gt;" style="ellipse;whiteSpace=wrap;html=1;" vertex="1" parent="1">
          <mxGeometry x="764" y="670" width="120" height="80" as="geometry" />
        </mxCell>
        <mxCell id="it57xMDeB9nZyHFq1VzK-7" value="&lt;span style=&quot;font-size: 18px;&quot;&gt;altitude&lt;/span&gt;" style="ellipse;whiteSpace=wrap;html=1;" vertex="1" parent="1">
          <mxGeometry x="904" y="670" width="120" height="80" as="geometry" />
        </mxCell>
        <mxCell id="it57xMDeB9nZyHFq1VzK-12" value="&lt;span style=&quot;font-size: 18px;&quot;&gt;latitude&lt;/span&gt;" style="ellipse;whiteSpace=wrap;html=1;" vertex="1" parent="1">
          <mxGeometry x="834" y="770" width="120" height="80" as="geometry" />
        </mxCell>
        <mxCell id="it57xMDeB9nZyHFq1VzK-13" value="&lt;span style=&quot;font-size: 18px;&quot;&gt;longitude&lt;/span&gt;" style="ellipse;whiteSpace=wrap;html=1;" vertex="1" parent="1">
          <mxGeometry x="694" y="770" width="120" height="80" as="geometry" />
        </mxCell>
        <mxCell id="it57xMDeB9nZyHFq1VzK-15" style="edgeStyle=orthogonalEdgeStyle;rounded=0;orthogonalLoop=1;jettySize=auto;html=1;entryX=0.225;entryY=0.135;entryDx=0;entryDy=0;entryPerimeter=0;" edge="1" parent="1" source="it57xMDeB9nZyHFq1VzK-6" target="it57xMDeB9nZyHFq1VzK-12">
          <mxGeometry relative="1" as="geometry" />
        </mxCell>
        <mxCell id="it57xMDeB9nZyHFq1VzK-16" value="&lt;span style=&quot;font-size: 18px;&quot;&gt;url&lt;/span&gt;&lt;div&gt;&lt;span style=&quot;font-size: 18px;&quot;&gt;*&lt;/span&gt;&lt;/div&gt;" style="ellipse;whiteSpace=wrap;html=1;" vertex="1" parent="1">
          <mxGeometry x="754" y="920" width="120" height="80" as="geometry" />
        </mxCell>
        <mxCell id="it57xMDeB9nZyHFq1VzK-18" value="&lt;span style=&quot;font-size: 18px;&quot;&gt;capacity&lt;/span&gt;&lt;div&gt;&lt;span style=&quot;font-size: 18px;&quot;&gt;PCDATA&lt;/span&gt;&lt;/div&gt;" style="ellipse;whiteSpace=wrap;html=1;" vertex="1" parent="1">
          <mxGeometry x="344" y="1010" width="120" height="80" as="geometry" />
        </mxCell>
        <mxCell id="it57xMDeB9nZyHFq1VzK-20" value="&lt;font style=&quot;font-size: 18px;&quot;&gt;id&lt;/font&gt;&lt;div&gt;&lt;font size=&quot;3&quot;&gt;ID #REQUIRED&lt;/font&gt;&lt;/div&gt;" style="whiteSpace=wrap;html=1;" vertex="1" parent="1">
          <mxGeometry x="314" y="211" width="120" height="60" as="geometry" />
        </mxCell>
        <mxCell id="it57xMDeB9nZyHFq1VzK-22" value="&lt;span style=&quot;font-size: 18px;&quot;&gt;region&lt;/span&gt;&lt;br&gt;&lt;div&gt;&lt;font size=&quot;3&quot;&gt;IDREF #REQUIRED&lt;/font&gt;&lt;/div&gt;" style="whiteSpace=wrap;html=1;" vertex="1" parent="1">
          <mxGeometry x="454" y="211" width="120" height="60" as="geometry" />
        </mxCell>
        <mxCell id="it57xMDeB9nZyHFq1VzK-23" value="&lt;span style=&quot;font-size: 18px;&quot;&gt;type&lt;/span&gt;&lt;br&gt;&lt;div&gt;&lt;font size=&quot;3&quot;&gt;IDREF #REQUIRED&lt;/font&gt;&lt;/div&gt;" style="whiteSpace=wrap;html=1;" vertex="1" parent="1">
          <mxGeometry x="594" y="211" width="120" height="60" as="geometry" />
        </mxCell>
        <mxCell id="it57xMDeB9nZyHFq1VzK-30" style="edgeStyle=orthogonalEdgeStyle;rounded=0;orthogonalLoop=1;jettySize=auto;html=1;entryX=0.5;entryY=0;entryDx=0;entryDy=0;" edge="1" parent="1" source="it57xMDeB9nZyHFq1VzK-27" target="it57xMDeB9nZyHFq1VzK-29">
          <mxGeometry relative="1" as="geometry" />
        </mxCell>
        <mxCell id="it57xMDeB9nZyHFq1VzK-27" value="&lt;span style=&quot;font-size: 18px;&quot;&gt;gallery&lt;/span&gt;" style="ellipse;whiteSpace=wrap;html=1;" vertex="1" parent="1">
          <mxGeometry x="344" y="1130" width="120" height="80" as="geometry" />
        </mxCell>
        <mxCell id="it57xMDeB9nZyHFq1VzK-32" value="" style="edgeStyle=orthogonalEdgeStyle;rounded=0;orthogonalLoop=1;jettySize=auto;html=1;" edge="1" parent="1" source="it57xMDeB9nZyHFq1VzK-29" target="it57xMDeB9nZyHFq1VzK-31">
          <mxGeometry relative="1" as="geometry" />
        </mxCell>
        <mxCell id="it57xMDeB9nZyHFq1VzK-29" value="&lt;span style=&quot;font-size: 18px;&quot;&gt;image*&lt;/span&gt;" style="ellipse;whiteSpace=wrap;html=1;" vertex="1" parent="1">
          <mxGeometry x="494" y="1190" width="120" height="80" as="geometry" />
        </mxCell>
        <mxCell id="it57xMDeB9nZyHFq1VzK-31" value="&lt;font size=&quot;3&quot;&gt;source&lt;/font&gt;&lt;div&gt;&lt;font size=&quot;3&quot;&gt;CDATA&lt;/font&gt;&lt;/div&gt;&lt;div&gt;&lt;font size=&quot;3&quot;&gt;#REQUIRED&lt;/font&gt;&lt;/div&gt;" style="whiteSpace=wrap;html=1;" vertex="1" parent="1">
          <mxGeometry x="694" y="1200" width="120" height="60" as="geometry" />
        </mxCell>
        <mxCell id="it57xMDeB9nZyHFq1VzK-33" value="&lt;font style=&quot;font-size: 18px;&quot;&gt;LEGEND:&lt;/font&gt;" style="text;html=1;align=center;verticalAlign=middle;whiteSpace=wrap;rounded=0;" vertex="1" parent="1">
          <mxGeometry x="70" y="50" width="60" height="30" as="geometry" />
        </mxCell>
        <mxCell id="it57xMDeB9nZyHFq1VzK-34" value="&lt;font style=&quot;font-size: 14px;&quot;&gt;ATTRIBUTE&lt;/font&gt;" style="rounded=0;whiteSpace=wrap;html=1;" vertex="1" parent="1">
          <mxGeometry x="40" y="90" width="120" height="60" as="geometry" />
        </mxCell>
        <mxCell id="it57xMDeB9nZyHFq1VzK-36" value="&lt;font style=&quot;font-size: 14px;&quot;&gt;ELEMENT&lt;/font&gt;" style="ellipse;whiteSpace=wrap;html=1;" vertex="1" parent="1">
          <mxGeometry x="40" y="161" width="120" height="80" as="geometry" />
        </mxCell>
        <mxCell id="it57xMDeB9nZyHFq1VzK-37" value="&lt;font size=&quot;3&quot;&gt;source&lt;/font&gt;&lt;div&gt;&lt;font size=&quot;3&quot;&gt;CDATA&lt;br&gt;#REQUIRED&lt;/font&gt;&lt;/div&gt;" style="whiteSpace=wrap;html=1;" vertex="1" parent="1">
          <mxGeometry x="534" y="510" width="120" height="60" as="geometry" />
        </mxCell>
        <mxCell id="it57xMDeB9nZyHFq1VzK-42" value="" style="edgeStyle=orthogonalEdgeStyle;rounded=0;orthogonalLoop=1;jettySize=auto;html=1;entryX=0.5;entryY=0;entryDx=0;entryDy=0;" edge="1" parent="1" source="it57xMDeB9nZyHFq1VzK-39" target="it57xMDeB9nZyHFq1VzK-41">
          <mxGeometry relative="1" as="geometry" />
        </mxCell>
        <mxCell id="it57xMDeB9nZyHFq1VzK-51" style="edgeStyle=orthogonalEdgeStyle;rounded=0;orthogonalLoop=1;jettySize=auto;html=1;entryX=0.5;entryY=0;entryDx=0;entryDy=0;" edge="1" parent="1" source="it57xMDeB9nZyHFq1VzK-39" target="it57xMDeB9nZyHFq1VzK-43">
          <mxGeometry relative="1" as="geometry" />
        </mxCell>
        <mxCell id="it57xMDeB9nZyHFq1VzK-52" style="edgeStyle=orthogonalEdgeStyle;rounded=0;orthogonalLoop=1;jettySize=auto;html=1;entryX=0.5;entryY=0;entryDx=0;entryDy=0;" edge="1" parent="1" source="it57xMDeB9nZyHFq1VzK-39" target="it57xMDeB9nZyHFq1VzK-44">
          <mxGeometry relative="1" as="geometry" />
        </mxCell>
        <mxCell id="it57xMDeB9nZyHFq1VzK-53" style="edgeStyle=orthogonalEdgeStyle;rounded=0;orthogonalLoop=1;jettySize=auto;html=1;entryX=0.5;entryY=0;entryDx=0;entryDy=0;" edge="1" parent="1" source="it57xMDeB9nZyHFq1VzK-39" target="it57xMDeB9nZyHFq1VzK-45">
          <mxGeometry relative="1" as="geometry" />
        </mxCell>
        <mxCell id="it57xMDeB9nZyHFq1VzK-54" style="edgeStyle=orthogonalEdgeStyle;rounded=0;orthogonalLoop=1;jettySize=auto;html=1;entryX=0.5;entryY=0;entryDx=0;entryDy=0;" edge="1" parent="1" source="it57xMDeB9nZyHFq1VzK-39" target="it57xMDeB9nZyHFq1VzK-46">
          <mxGeometry relative="1" as="geometry" />
        </mxCell>
        <mxCell id="it57xMDeB9nZyHFq1VzK-55" style="edgeStyle=orthogonalEdgeStyle;rounded=0;orthogonalLoop=1;jettySize=auto;html=1;entryX=0.5;entryY=0;entryDx=0;entryDy=0;" edge="1" parent="1" source="it57xMDeB9nZyHFq1VzK-39" target="it57xMDeB9nZyHFq1VzK-47">
          <mxGeometry relative="1" as="geometry" />
        </mxCell>
        <mxCell id="it57xMDeB9nZyHFq1VzK-56" style="edgeStyle=orthogonalEdgeStyle;rounded=0;orthogonalLoop=1;jettySize=auto;html=1;entryX=0.5;entryY=0;entryDx=0;entryDy=0;" edge="1" parent="1" source="it57xMDeB9nZyHFq1VzK-39" target="it57xMDeB9nZyHFq1VzK-48">
          <mxGeometry relative="1" as="geometry" />
        </mxCell>
        <mxCell id="it57xMDeB9nZyHFq1VzK-57" style="edgeStyle=orthogonalEdgeStyle;rounded=0;orthogonalLoop=1;jettySize=auto;html=1;entryX=0.5;entryY=0;entryDx=0;entryDy=0;" edge="1" parent="1" source="it57xMDeB9nZyHFq1VzK-39" target="it57xMDeB9nZyHFq1VzK-49">
          <mxGeometry relative="1" as="geometry" />
        </mxCell>
        <mxCell id="it57xMDeB9nZyHFq1VzK-58" style="edgeStyle=orthogonalEdgeStyle;rounded=0;orthogonalLoop=1;jettySize=auto;html=1;entryX=0.5;entryY=0;entryDx=0;entryDy=0;" edge="1" parent="1" source="it57xMDeB9nZyHFq1VzK-39" target="it57xMDeB9nZyHFq1VzK-50">
          <mxGeometry relative="1" as="geometry" />
        </mxCell>
        <mxCell id="it57xMDeB9nZyHFq1VzK-39" value="&lt;span style=&quot;font-size: 18px;&quot;&gt;amenities&lt;/span&gt;" style="ellipse;whiteSpace=wrap;html=1;" vertex="1" parent="1">
          <mxGeometry x="344" y="1290" width="120" height="80" as="geometry" />
        </mxCell>
        <mxCell id="it57xMDeB9nZyHFq1VzK-41" value="&lt;font size=&quot;3&quot;&gt;water&lt;/font&gt;&lt;div&gt;&lt;font size=&quot;3&quot;&gt;yes|no|no_info&lt;br&gt;#REQUIRED&lt;/font&gt;&lt;/div&gt;" style="whiteSpace=wrap;html=1;" vertex="1" parent="1">
          <mxGeometry x="494" y="1350" width="120" height="60" as="geometry" />
        </mxCell>
        <mxCell id="it57xMDeB9nZyHFq1VzK-43" value="&lt;div&gt;&lt;font size=&quot;3&quot;&gt;electricity&lt;/font&gt;&lt;/div&gt;&lt;div&gt;&lt;font size=&quot;3&quot;&gt;yes|no|no_info&lt;br&gt;#REQUIRED&lt;/font&gt;&lt;/div&gt;" style="whiteSpace=wrap;html=1;" vertex="1" parent="1">
          <mxGeometry x="624" y="1350" width="120" height="60" as="geometry" />
        </mxCell>
        <mxCell id="it57xMDeB9nZyHFq1VzK-44" value="&lt;font size=&quot;3&quot;&gt;heating&lt;/font&gt;&lt;br&gt;&lt;div&gt;&lt;font size=&quot;3&quot;&gt;yes|no|no_info&lt;br&gt;#REQUIRED&lt;/font&gt;&lt;/div&gt;" style="whiteSpace=wrap;html=1;" vertex="1" parent="1">
          <mxGeometry x="754" y="1350" width="120" height="60" as="geometry" />
        </mxCell>
        <mxCell id="it57xMDeB9nZyHFq1VzK-45" value="&lt;font size=&quot;3&quot;&gt;bathroom&lt;/font&gt;&lt;div&gt;&lt;font size=&quot;3&quot;&gt;yes|no|no_info&lt;br&gt;#REQUIRED&lt;/font&gt;&lt;/div&gt;" style="whiteSpace=wrap;html=1;" vertex="1" parent="1">
          <mxGeometry x="884" y="1350" width="120" height="60" as="geometry" />
        </mxCell>
        <mxCell id="it57xMDeB9nZyHFq1VzK-46" value="&lt;font size=&quot;3&quot;&gt;shower&lt;/font&gt;&lt;div&gt;&lt;font size=&quot;3&quot;&gt;yes|no|no_info&lt;br&gt;#REQUIRED&lt;/font&gt;&lt;/div&gt;" style="whiteSpace=wrap;html=1;" vertex="1" parent="1">
          <mxGeometry x="1014" y="1350" width="120" height="60" as="geometry" />
        </mxCell>
        <mxCell id="it57xMDeB9nZyHFq1VzK-47" value="&lt;font size=&quot;3&quot;&gt;canteen&lt;/font&gt;&lt;div&gt;&lt;font size=&quot;3&quot;&gt;yes|no|no_info&lt;br&gt;#REQUIRED&lt;/font&gt;&lt;/div&gt;" style="whiteSpace=wrap;html=1;" vertex="1" parent="1">
          <mxGeometry x="1144" y="1350" width="120" height="60" as="geometry" />
        </mxCell>
        <mxCell id="it57xMDeB9nZyHFq1VzK-48" value="&lt;font size=&quot;3&quot;&gt;restaurant&lt;/font&gt;&lt;div&gt;&lt;font size=&quot;3&quot;&gt;yes|no|no_info&lt;br&gt;#REQUIRED&lt;/font&gt;&lt;/div&gt;" style="whiteSpace=wrap;html=1;" vertex="1" parent="1">
          <mxGeometry x="1274" y="1350" width="120" height="60" as="geometry" />
        </mxCell>
        <mxCell id="it57xMDeB9nZyHFq1VzK-49" value="&lt;font size=&quot;3&quot;&gt;internet&lt;/font&gt;&lt;div&gt;&lt;font size=&quot;3&quot;&gt;yes|no|no_info&lt;br&gt;#REQUIRED&lt;/font&gt;&lt;/div&gt;" style="whiteSpace=wrap;html=1;" vertex="1" parent="1">
          <mxGeometry x="1404" y="1350" width="120" height="60" as="geometry" />
        </mxCell>
        <mxCell id="it57xMDeB9nZyHFq1VzK-50" value="&lt;font size=&quot;3&quot;&gt;shop&lt;/font&gt;&lt;div&gt;&lt;font size=&quot;3&quot;&gt;yes|no|no_info&lt;br&gt;#REQUIRED&lt;/font&gt;&lt;/div&gt;" style="whiteSpace=wrap;html=1;" vertex="1" parent="1">
          <mxGeometry x="1534" y="1350" width="120" height="60" as="geometry" />
        </mxCell>
        <mxCell id="it57xMDeB9nZyHFq1VzK-62" value="" style="edgeStyle=orthogonalEdgeStyle;rounded=0;orthogonalLoop=1;jettySize=auto;html=1;entryX=0.5;entryY=0;entryDx=0;entryDy=0;" edge="1" parent="1" source="it57xMDeB9nZyHFq1VzK-59" target="it57xMDeB9nZyHFq1VzK-61">
          <mxGeometry relative="1" as="geometry" />
        </mxCell>
        <mxCell id="it57xMDeB9nZyHFq1VzK-64" style="edgeStyle=orthogonalEdgeStyle;rounded=0;orthogonalLoop=1;jettySize=auto;html=1;entryX=0.5;entryY=0;entryDx=0;entryDy=0;exitX=1;exitY=0.5;exitDx=0;exitDy=0;" edge="1" parent="1" source="it57xMDeB9nZyHFq1VzK-61" target="it57xMDeB9nZyHFq1VzK-63">
          <mxGeometry relative="1" as="geometry" />
        </mxCell>
        <mxCell id="it57xMDeB9nZyHFq1VzK-59" value="&lt;span style=&quot;font-size: 18px;&quot;&gt;exit_routes&lt;/span&gt;" style="ellipse;whiteSpace=wrap;html=1;" vertex="1" parent="1">
          <mxGeometry x="344" y="1420" width="120" height="80" as="geometry" />
        </mxCell>
        <mxCell id="it57xMDeB9nZyHFq1VzK-66" style="edgeStyle=orthogonalEdgeStyle;rounded=0;orthogonalLoop=1;jettySize=auto;html=1;entryX=0.5;entryY=0;entryDx=0;entryDy=0;" edge="1" parent="1" source="it57xMDeB9nZyHFq1VzK-61" target="it57xMDeB9nZyHFq1VzK-65">
          <mxGeometry relative="1" as="geometry" />
        </mxCell>
        <mxCell id="it57xMDeB9nZyHFq1VzK-61" value="&lt;span style=&quot;font-size: 18px;&quot;&gt;route*&lt;/span&gt;" style="ellipse;whiteSpace=wrap;html=1;" vertex="1" parent="1">
          <mxGeometry x="484" y="1480" width="120" height="80" as="geometry" />
        </mxCell>
        <mxCell id="it57xMDeB9nZyHFq1VzK-63" value="&lt;span style=&quot;font-size: 18px;&quot;&gt;route_name&lt;/span&gt;" style="ellipse;whiteSpace=wrap;html=1;" vertex="1" parent="1">
          <mxGeometry x="614" y="1540" width="120" height="80" as="geometry" />
        </mxCell>
        <mxCell id="it57xMDeB9nZyHFq1VzK-65" value="&lt;span style=&quot;font-size: 18px;&quot;&gt;distance&lt;/span&gt;&lt;div&gt;&lt;span style=&quot;font-size: 18px;&quot;&gt;?&lt;/span&gt;&lt;/div&gt;" style="ellipse;whiteSpace=wrap;html=1;" vertex="1" parent="1">
          <mxGeometry x="744" y="1540" width="120" height="80" as="geometry" />
        </mxCell>
        <mxCell id="it57xMDeB9nZyHFq1VzK-67" value="" style="edgeStyle=orthogonalEdgeStyle;rounded=0;orthogonalLoop=1;jettySize=auto;html=1;entryX=0.5;entryY=0;entryDx=0;entryDy=0;" edge="1" parent="1" source="it57xMDeB9nZyHFq1VzK-69" target="it57xMDeB9nZyHFq1VzK-71">
          <mxGeometry relative="1" as="geometry" />
        </mxCell>
        <mxCell id="it57xMDeB9nZyHFq1VzK-68" style="edgeStyle=orthogonalEdgeStyle;rounded=0;orthogonalLoop=1;jettySize=auto;html=1;entryX=0.5;entryY=0;entryDx=0;entryDy=0;exitX=1;exitY=0.5;exitDx=0;exitDy=0;" edge="1" parent="1" source="it57xMDeB9nZyHFq1VzK-71" target="it57xMDeB9nZyHFq1VzK-72">
          <mxGeometry relative="1" as="geometry" />
        </mxCell>
        <mxCell id="it57xMDeB9nZyHFq1VzK-69" value="&lt;span style=&quot;font-size: 18px;&quot;&gt;nearby_sites&lt;/span&gt;" style="ellipse;whiteSpace=wrap;html=1;" vertex="1" parent="1">
          <mxGeometry x="344" y="1570" width="120" height="80" as="geometry" />
        </mxCell>
        <mxCell id="it57xMDeB9nZyHFq1VzK-70" style="edgeStyle=orthogonalEdgeStyle;rounded=0;orthogonalLoop=1;jettySize=auto;html=1;entryX=0.5;entryY=0;entryDx=0;entryDy=0;" edge="1" parent="1" source="it57xMDeB9nZyHFq1VzK-71" target="it57xMDeB9nZyHFq1VzK-73">
          <mxGeometry relative="1" as="geometry" />
        </mxCell>
        <mxCell id="it57xMDeB9nZyHFq1VzK-71" value="&lt;span style=&quot;font-size: 18px;&quot;&gt;site*&lt;/span&gt;" style="ellipse;whiteSpace=wrap;html=1;" vertex="1" parent="1">
          <mxGeometry x="484" y="1630" width="120" height="80" as="geometry" />
        </mxCell>
        <mxCell id="it57xMDeB9nZyHFq1VzK-72" value="&lt;span style=&quot;font-size: 18px;&quot;&gt;site_name&lt;/span&gt;" style="ellipse;whiteSpace=wrap;html=1;" vertex="1" parent="1">
          <mxGeometry x="614" y="1690" width="120" height="80" as="geometry" />
        </mxCell>
        <mxCell id="it57xMDeB9nZyHFq1VzK-73" value="&lt;span style=&quot;font-size: 18px;&quot;&gt;distance&lt;/span&gt;&lt;div&gt;&lt;span style=&quot;font-size: 18px;&quot;&gt;?&lt;/span&gt;&lt;/div&gt;" style="ellipse;whiteSpace=wrap;html=1;" vertex="1" parent="1">
          <mxGeometry x="744" y="1690" width="120" height="80" as="geometry" />
        </mxCell>
        <mxCell id="3BAhueXLDxl5mmKf5yLW-5" value="" style="edgeStyle=orthogonalEdgeStyle;rounded=0;orthogonalLoop=1;jettySize=auto;html=1;entryX=0.5;entryY=0;entryDx=0;entryDy=0;" edge="1" parent="1" source="3BAhueXLDxl5mmKf5yLW-2" target="3BAhueXLDxl5mmKf5yLW-4">
          <mxGeometry relative="1" as="geometry" />
        </mxCell>
        <mxCell id="3BAhueXLDxl5mmKf5yLW-2" value="&lt;span style=&quot;font-size: 18px;&quot;&gt;regions&lt;/span&gt;" style="ellipse;whiteSpace=wrap;html=1;" vertex="1" parent="1">
          <mxGeometry x="954" y="211" width="120" height="80" as="geometry" />
        </mxCell>
        <mxCell id="3BAhueXLDxl5mmKf5yLW-7" value="" style="edgeStyle=orthogonalEdgeStyle;rounded=0;orthogonalLoop=1;jettySize=auto;html=1;" edge="1" parent="1" source="3BAhueXLDxl5mmKf5yLW-4" target="3BAhueXLDxl5mmKf5yLW-6">
          <mxGeometry relative="1" as="geometry" />
        </mxCell>
        <mxCell id="3BAhueXLDxl5mmKf5yLW-4" value="&lt;span style=&quot;font-size: 18px;&quot;&gt;region*&lt;/span&gt;" style="ellipse;whiteSpace=wrap;html=1;" vertex="1" parent="1">
          <mxGeometry x="1124" y="271" width="120" height="80" as="geometry" />
        </mxCell>
        <mxCell id="3BAhueXLDxl5mmKf5yLW-6" value="&lt;font size=&quot;3&quot;&gt;id&lt;/font&gt;&lt;div&gt;&lt;font size=&quot;3&quot;&gt;ID&lt;br&gt;#REQUIRED&lt;/font&gt;&lt;/div&gt;" style="whiteSpace=wrap;html=1;" vertex="1" parent="1">
          <mxGeometry x="1324" y="281" width="120" height="60" as="geometry" />
        </mxCell>
        <mxCell id="3BAhueXLDxl5mmKf5yLW-8" value="" style="edgeStyle=orthogonalEdgeStyle;rounded=0;orthogonalLoop=1;jettySize=auto;html=1;entryX=0.5;entryY=0;entryDx=0;entryDy=0;" edge="1" parent="1" source="3BAhueXLDxl5mmKf5yLW-9" target="3BAhueXLDxl5mmKf5yLW-11">
          <mxGeometry relative="1" as="geometry" />
        </mxCell>
        <mxCell id="3BAhueXLDxl5mmKf5yLW-9" value="&lt;span style=&quot;font-size: 18px;&quot;&gt;hut_types&lt;/span&gt;" style="ellipse;whiteSpace=wrap;html=1;" vertex="1" parent="1">
          <mxGeometry x="954" y="351" width="120" height="80" as="geometry" />
        </mxCell>
        <mxCell id="3BAhueXLDxl5mmKf5yLW-10" value="" style="edgeStyle=orthogonalEdgeStyle;rounded=0;orthogonalLoop=1;jettySize=auto;html=1;" edge="1" parent="1" source="3BAhueXLDxl5mmKf5yLW-11" target="3BAhueXLDxl5mmKf5yLW-12">
          <mxGeometry relative="1" as="geometry" />
        </mxCell>
        <mxCell id="3BAhueXLDxl5mmKf5yLW-11" value="&lt;span style=&quot;font-size: 18px;&quot;&gt;type*&lt;/span&gt;" style="ellipse;whiteSpace=wrap;html=1;" vertex="1" parent="1">
          <mxGeometry x="1124" y="411" width="120" height="80" as="geometry" />
        </mxCell>
        <mxCell id="3BAhueXLDxl5mmKf5yLW-12" value="&lt;font size=&quot;3&quot;&gt;id&lt;/font&gt;&lt;div&gt;&lt;font size=&quot;3&quot;&gt;ID&lt;br&gt;#REQUIRED&lt;/font&gt;&lt;/div&gt;" style="whiteSpace=wrap;html=1;" vertex="1" parent="1">
          <mxGeometry x="1324" y="421" width="120" height="60" as="geometry" />
        </mxCell>
      </root>
    </mxGraphModel>
  </diagram>
</mxfile>
